<?xml version="1.0" encoding="UTF-8"?><svg id="Calque_1" xmlns="http://www.w3.org/2000/svg" viewBox="0 0 476.75 99.8"><defs><style>.cls-1{fill:#023e8a;}.cls-2{fill:#caf0f8;}.cls-3{font-family:Born2bSportyFS, 'Born2bSporty FS';font-size:100px;}.cls-4{fill:#90e0ef;}.cls-5{fill:#0077b6;}.cls-6{fill:#03045e;}.cls-7{fill:#ade8f4;}.cls-8{fill:#48cae4;}.cls-9{fill:#00b4d8;}.cls-10{fill:#0096c7;}</style></defs><text class="cls-3" transform="translate(108 78.12)"><tspan class="cls-6" x="0" y="0">M</tspan><tspan class="cls-1" x="56.25" y="0">a</tspan><tspan class="cls-5" x="100" y="0">p</tspan><tspan class="cls-10" x="143.75" y="0">S</tspan><tspan class="cls-9" x="187.5" y="0">t</tspan><tspan class="cls-8" x="218.75" y="0">u</tspan><tspan class="cls-4" x="262.5" y="0">d</tspan><tspan class="cls-7" x="306.25" y="0">i</tspan><tspan class="cls-2" x="325" y="0">o</tspan></text><g><path class="cls-6" d="M95,53.89c-.27,9.47-3.37,19.25-10.04,27.82-7.41,9.53-17.18,15.07-28.98,17.25-7.19,1.33-14.33,1.12-21.36-.81-11.41-3.14-20.44-9.65-26.91-19.57C2.45,70.5-.19,61.58,.01,51.93c.21-9.79,3.15-18.71,8.96-26.66,4.21-5.75,9.32-10.48,15.62-13.86,4.79-2.57,9.88-4.26,15.25-5.12,3.33-.53,6.67-.7,10.01-.5,5.83,.35,11.44,1.69,16.8,4.02,10.65,4.64,18.44,12.3,23.64,22.6,3.19,6.32,4.64,13.1,4.7,21.47ZM46.97,27.53c.02-.18,.07-.36,.07-.55,0-3.46,0-6.92,0-10.38,0-1.78,0-3.55,0-5.33l-.18-.02c-1.67,5.25-2.83,10.6-3.45,16.25h3.58c-.08,.09-.15,.17-.23,.26-.59,.62-.63,1.48-.11,2.06,.53,.57,1.44,.65,2,.17,.59-.5,.66-1.47,.15-2.14-.07-.09-.13-.19-.2-.3l3.68-.18c-.91-5.39-2.03-10.6-4-15.79v15.75c-.44,.06-.87,.12-1.3,.19Zm20.1-6.49c-.45-.33-.93-.64-1.35-1.01-.25-.22-.52-.55-.55-.84-.06-.67-.46-1.06-.89-1.46-3.29-3.08-6.99-5.52-11.25-7.07-.3-.11-.61-.2-.92-.3,5.71,3.66,9.83,8.65,12.83,14.7l3.3-1.28-.77-1.83,1,1.74,1.38-.75c-1-.95-1.69-2.09-2.83-2.74l-.2,.16,.23,.69Zm4.21,7.46c.21,.14,.47,.44,.63,.4,.61-.15,1.18-.42,1.89-.69l-1.99-2.85c-.52,.25-.95,.42-1.35,.66-.12,.07-.13,.3-.19,.46-.28-.01-.58-.1-.83-.03-.6,.18-1.17,.45-1.76,.68-.49,.19-.97,.37-1.47,.55,.51,1.2,.98,2.3,1.43,3.35l-2.51,.59-1.46-3.22-2.24,.51-.71-2.61,1.68-.59c-1.7-4.72-8.85-13.19-12.71-15.03,2.87,5.22,4.05,10.87,5.27,16.53l.97-.09,.45,2.69-.98,.16,.19,1.93-2.54,.74-.38-2.36c-1.32,0-2.55,.01-3.78,0-.48,0-.65,.16-.64,.64,.03,1.74,.02,3.49,.03,5.23,0,.32,0,.63,0,1.07h3.27v.23c-.19,.04-.4,.1-.6,.1-.72,.02-1.44,.02-2.16,.02-.33,0-.51,.09-.51,.48,.01,2.51,0,5.02,.02,7.53,0,.16,.22,.45,.34,.45,1.78-.01,3.56-.06,5.32-.1v-5.35l2.83,.26,.23,4.82c3.92-.44,7.73-.97,11.61-2.02-.44-2.04-.87-4.01-1.28-5.88l2.35-1.2,1.54,5.67c.27-.25,.49-.54,.79-.69,.18-.09,.47,.04,.71,.06-.07,.21-.09,.47-.23,.62-.13,.13-.38,.15-.58,.19-.42,.08-.59,.3-.52,.73,.1,.59,.16,1.18,.22,1.67-.74,.05-1.44,0-2.07,.18-.75,.23-.93,.96-.96,1.82l-11.48,1.84v4.88h-2.96v-4.69c-.78,0-1.45,0-2.12,0-.7,0-1.4,.01-2.09,.04-.35,.01-.57-.07-.76-.43-.68-1.27-2.15-1.3-2.9-.08-.24,.4-.49,.53-.94,.51-1.15-.03-2.31-.01-3.6-.01v7.57l-.98,.09v1.61l1.06,.1v4.6h4.78c-.19,.45-.41,.77-.45,1.11-.15,1.26,.83,1.96,2.32,1.7-.07,.31-.19,.61-.19,.92-.01,3.58,0,7.15,0,10.73,0,.22,.04,.44,.07,.65,1.24,0,2.4-.02,3.56,0,.65,.02,.88-.26,.94-.88,.24-2.56,.54-5.12,.79-7.69,.12-1.24,.17-2.48,.26-3.73h-5.44c.93-.79,1.03-1.71,.3-2.85,1.56,0,2.98-.03,4.39,.01,.71,.02,.98-.19,.95-.93-.05-1.53-.01-3.06-.01-4.62h3v5.3l5.01-.48c.08-1.11,.43-1.98,1.53-2.34l-.54-5.95c-1.25-.24-1.88-.91-1.91-1.9-.03-.91,.53-1.67,1.46-1.85,.38-.07,.93-.09,1.19,.13,.54,.44,.93,1.06,1.49,1.73,1.02-.15,2.26-.36,3.5-.49,.6-.06,.71-.33,.67-.86-.07-.87-.09-1.75-.13-2.51l2.74-.79c.12,2.06,.24,4.14,.36,6.26,.27-.06,.54-.1,.81-.18,2.48-.69,4.96-1.4,7.45-2.07,.49-.13,.61-.33,.58-.81-.26-4.01-.97-7.93-2.24-11.74-.36-1.08-.83-2.13-1.25-3.2-.71,.36-1.11,.7-1.04,1.49,.06,.73-.22,1.55-.89,1.86-1.06,.49-.9,1.19-.63,2.02,.1,.31,.09,.65,.2,.95,.06,.18,.23,.38,.39,.45,1.19,.47,1.59,1.54,.99,2.64-.1,.18-.18,.48-.1,.62,.73,1.25,1.51,2.48,2.24,3.73,.11,.2,.1,.51,.04,.74-.02,.09-.44,.2-.5,.14-.16-.18-.27-.43-.33-.67-.05-.23,.08-.52-.02-.71-.52-.96-1.06-1.91-1.65-2.83-.1-.16-.44-.3-.64-.27-.8,.14-1.45-.08-1.88-.72-.36-.54-.32-1.28,.1-1.9,.22-.33,.46-.65,.68-.97l.22,.17-.59-2.68c-1.76-.16-3.12-1.21-2.66-3.49l-1.65-.7,.12-.29c.38,.12,.78,.22,1.14,.38,.36,.16,.59,.14,.9-.17,.36-.36,.85-.61,1.32-.85,.75-.38,1.57-.65,2.3-1.09,.9-.54,.89-.36,.3-1.36-.7-1.19-1.46-2.35-2.18-3.52-.36,.18-.56,.28-.77,.38-.23,.11-.46,.21-.69,.33q-1.22,.65-1.28-.73Zm-2.7,47.51c.13,.03,.2,.07,.26,.05,2.32-.68,4.63-1.35,6.94-2.05,.22-.07,.46-.27,.56-.47,.95-1.99,1.94-3.96,2.76-6,.61-1.49,.98-3.08,1.46-4.62,1.56,.14,2.57-.41,2.74-1.44,.17-1.06-.47-2.01-1.51-2.25-1.05-.25-1.87,.43-2.34,2.02-2.32,.64-4.68,1.33-7.07,1.91-.66,.16-.89,.45-.98,1.08-.13,.95-.35,1.89-.53,2.8l-2.63-.44,.4-2.51c-3.95,.47-7.82,.94-11.76,1.41-.18,2.2-.36,4.48-.56,6.84l3.45,.48c.36-.59,.85-1.03,1.63-1.09,.31-.02,.62-.21,.81-.28-.22,.71,.95,.78,1.02,1.5l2.07-.9,.17,.22c-.15,.14-.29,.33-.47,.4-.85,.33-1.77,.57-1.81,1.76,0,.18-.17,.42-.33,.51-.57,.31-1.17,.56-1.94,.91l-.45,1.6c1.45-.21,2.8-.42,4.15-.59,.52-.07,.82-.28,.98-.8,.25-.79,.57-1.56,.87-2.36,.46,.16,.89,.34,1.34,.45,.43,.11,.89,.13,1.36,.2l-.58,1.66ZM19.22,37.67l-.21-.23c.45-.67,.89-1.36,1.36-2.02,.22-.31,.29-.53,.05-.91-.85-1.34-.28-2.74,1.23-3.29,.25-.09,.52-.36,.62-.61,.58-1.47,1.08-2.96,1.67-4.43,.22-.56,.04-.75-.51-.87-.54,.76-1.1,1.5-1.6,2.28-2.03,3.17-3.98,6.38-5.02,10.05-.06,.22-.27,.41-.45,.59-1.21,1.18-1.7,2.56-1.26,4.24,.07,.27,.02,.59-.02,.88-.25,1.91-.53,3.81-.76,5.72-.02,.19,.2,.52,.39,.6,.94,.38,1.91,.69,2.78,1l1.5-1.43c.13,.07,.31,.2,.51,.26,.98,.28,1.38,.75,1.51,1.76,.02,.19,.16,.47,.31,.52,.89,.31,1.8,.57,2.8,.87l.32-6.27-4.81-1.46c1.17-.55,2-1.28,2.47-2.4l2.83,.86c.82-5.46,2.08-10.7,4.26-15.67l-4.7-1.86c-.33,.89-.66,1.75-.97,2.62-.31,.89-.61,1.78-.91,2.66,1.43,.84,1.92,1.81,1.5,2.89-.45,1.15-1.48,1.58-2.92,1.23-.71,.76-1.09,1.82-1.96,2.44Zm.04,21.51c-.15-1.99-.28-3.81-.41-5.64-.02-.37-.19-.57-.47-.83-.36-.33-.55-.86-.82-1.3-.11-.18-.18-.46-.33-.52-.94-.38-1.9-.7-2.98-1.09v5.44h-2.53c-.02-.16-.06-.34-.07-.52-.37-4.04-.12-8.05,.83-11.97,.64-2.63,1.57-5.19,2.34-7.79,.08-.26,.1-.69-.05-.82-.43-.38-.96-.64-1.51-.99-.22,.47-.44,.88-.62,1.3-2.43,5.69-3.54,11.65-3.66,17.83-.02,1.05,.12,1.89,1.12,2.44,.35,.19,.61,.55,.89,.82-.29,.4-.63,.76-.83,1.19-.2,.45-.27,.96-.4,1.47l-.44-.17c.23,3.05,2.04,9.89,3.32,12.57,.08,.16,.18,.36,.32,.44,.96,.5,1.93,.97,3.08,1.53-1.76-3.86-3.14-7.62-3.79-11.65,2.11,.04,3.17-1.03,3.42-2.94l3.58,1.22Zm8.08,1.9c3.93,.76,7.68,1.35,11.42,1.49,0-1.8,.01-3.52-.02-5.23,0-.14-.25-.35-.43-.41-.88-.29-1.79-.51-2.66-.82-.42-.15-.69-.13-1.03,.17-.61,.52-1.42,.52-2.08,.1-.64-.41-.93-1.08-.79-1.86,.06-.29,.17-.57,.24-.81-.5-.45-1-.87-1.46-1.32-.26-.25-.49-.25-.85-.2-.56,.08-1.24,.1-1.72-.14-1.03-.51-1.3-1.92-.71-2.91,.57-.95,1.71-1.28,2.66-.78,1.05,.56,1.43,1.79,.94,2.87-.1,.22-.11,.67,.01,.75,.6,.41,.88,1.27,1.76,1.28,.02,0,.04-.02,.06-.03,1.64-.54,2.87,.5,2.63,2.24l3.45,1.12v-7.9l-11.3-1.61c-.35,.62-.61,1.14-.92,1.63-.56,.87-.79,1.83-.16,2.67,.55,.72,.57,1.46,.6,2.26,.1,2.48,.23,4.95,.35,7.43Zm-1,9.72c0-.2,0-.29-.02-.37-.43-2.14-.86-4.28-1.32-6.41-.04-.2-.3-.45-.5-.51-2.13-.58-4.27-1.11-6.4-1.7-1.04-.29-2.05-.67-3.2-1.05,.2,.83,.36,1.55,.54,2.26,.93,3.58,2.14,7.06,3.92,10.32,.17,.31,.41,.7,.7,.8,1.24,.42,2.51,.75,3.86,1.14-.55-1.11-1.06-2.08-1.51-3.07-.18-.4-.39-.6-.87-.6-.81,0-1.51-.78-1.61-1.65-.1-.84,.39-1.78,1.18-1.91,.66-.11,.91-.41,1.02-.99l-.1,.83c.91,.28,1.44,.88,1.55,1.84,.01,.12,.16,.29,.29,.33,.79,.25,1.59,.48,2.48,.74Zm12.51-25.09c.47-5.35,.92-10.56,1.37-15.77-.59-.31-1.03-.07-1.47,.4-.58,.62-1.36,.89-2.2,.9-.41,0-.57,.15-.68,.51-.38,1.27-.8,2.52-1.16,3.79-.06,.22,.04,.57,.19,.75,.78,.88,.6,2.19-.47,2.63-.46,.19-.52,.47-.56,.84-.14,1.34-.29,2.68-.41,4.02-.04,.43,0,.86,0,1.33l5.39,.6Zm1.06-30.51c-2.83,3.21-5.12,6.7-6.9,10.63,.37,.06,.83,.16,1.03-.03,1.92-1.71,4.32-1.37,5.55,.86,.29,.53,.62,.69,1.19,.53,.86-5.74,1.92-11.43,4.53-16.71l-4.24,3.46c-1.1-.81-1.43-.77-2.05,.28l.89,.98Zm-11.72,67.97c.87,1.31,1.73,2.49,2.47,3.74,.98,1.67,2.6,1.8,4.29,2.01l-3.14-4.54,2.59-1c.06,.08,.12,.15,.17,.23,1.28,1.79,2.56,3.59,3.84,5.37,.45,.62,1.05,.88,1.84,.71-.25-.84-.47-1.67-.74-2.48-.08-.23-.29-.44-.49-.58-.69-.46-.88-1.35-.45-2.08,.11-.19,.18-.48,.11-.67-.39-1.07-.8-2.13-1.26-3.17-.09-.21-.4-.43-.63-.47-1.31-.19-2.63-.34-3.94-.47-.28-.03-.59,0-.84,.11-.98,.45-2.23,.34-2.98-.43-.95-.96-2.18-.68-3.33-.96,.52,1.09,1.1,2.09,1.68,3.09,.7,1.2,.69,1.2,2.01,.86,.21-.06,.44-.03,.67-.05l.02,.24-1.88,.52Zm18.84,11.11v-12.98h1.26v13.08c2.03-4.36,3.2-8.95,3.97-13.72h-3.29c.21-.83,.25-1.58-.54-2.08-.55-.35-1.11-.32-1.63,.06-.7,.52-.79,1.21-.44,2.04h-2.87c.1,2.95,2.37,11.93,3.55,13.6ZM30.4,25.08c2.94-6.09,6.98-11.18,12.75-14.78-4.77,1.23-8.64,3.96-12.24,7.19l-1.21-1.35-.99,.67,1.06,1.57-4.13,4.7,4.77,2Zm11.57,40.61c.09,1.53,.16,3.04,.29,4.55,.21,2.41,.45,4.81,.71,7.21,.02,.18,.27,.48,.42,.48,1.18,.04,2.36,.02,3.61,.02v-12.26h-5.02Zm30.05-5.46c.07,.02,.12,.06,.15,.05,1.9-.53,3.8-1.05,5.7-1.6,.15-.04,.34-.19,.39-.34,.44-1.23,1.36-1.89,2.57-2.23,.19-.05,.46-.3,.47-.46,.04-1.32,.02-2.64,.02-3.97-3,.84-5.94,1.65-8.87,2.47-.14,2.02-.28,4.05-.42,6.08Zm-5.61,1.26c.77-.13,1.43-.26,2.1-.35,.49-.06,.64-.31,.67-.79,.1-1.9,.26-3.8,.35-5.7,.05-.99,0-1.99,0-3-.18-.02-.3-.05-.41-.03-1.27,.16-2.59,.15-3.77,.57-.69,.24-1.14,1.17-1.7,1.79-.01,.01,0,.04,0,.07,.17,1.85,.34,3.69,.52,5.56,1.13,.16,1.94,.69,2.22,1.87Zm13.75-27.17c2.85,6.7,4.22,13.64,3.77,20.93,.18-.05,.22-.06,.26-.08,.48-.33,.94-.69,1.44-.98,.45-.26,.57-.6,.58-1.09,.17-6.01-.91-11.79-3.18-17.35-.35-.87-.78-1.71-1.19-2.58l-1.69,1.14ZM6.62,52.62c.03-.38,.05-.57,.05-.75,.06-4.22,.58-8.39,1.83-12.42,.72-2.34,1.77-4.57,2.66-6.86,.1-.27,.23-.65,.11-.85-.2-.34-.58-.57-.93-.89-.16,.24-.32,.43-.43,.66-.94,1.99-1.99,3.94-2.79,5.98-1.54,3.94-2.33,8.05-2.54,12.27-.02,.36,.03,.83,.24,1.09,.49,.6,1.11,1.1,1.8,1.76Zm40.36-6.64v-8.4h-4.68l-.43,8.4h5.11Zm37.67-15.08c-1.2,.93-1.18,.92-.58,2.1,2.45,4.75,3.76,9.82,4.24,15.11,.12,1.37,.17,2.74,.25,4.22,.61-.57,1.17-1.06,1.67-1.6,.16-.18,.25-.49,.24-.74-.28-6.18-1.92-11.99-4.84-17.43-.29-.55-.63-1.07-.98-1.65Zm-51.91,38.26l-3.7,.68c.46,1.65,.88,3.21,1.35,4.76,.06,.18,.38,.37,.6,.41,1.06,.2,1.83,.73,2.27,1.74,.08,.18,.27,.42,.44,.45,.86,.13,1.74,.2,2.65,.29l-1.44-6.78c-1.37-.23-1.57-.37-2.17-1.54Zm-3.8-32.52c-.47,2.51-.91,4.91-1.37,7.41l5.26,.97c.2-1.95,.39-3.77,.56-5.6,.01-.14-.07-.38-.15-.41-.61-.18-.8-.64-.94-1.19-.03-.14-.23-.3-.38-.34-.93-.28-1.87-.53-2.98-.84Zm-4.46,23.91c.01-.23,.03-.34,.03-.45-.13-2.23-.25-4.45-.41-6.68-.01-.17-.19-.43-.35-.48-.85-.3-1.72-.56-2.59-.81-.13-.04-.32-.02-.43,.05-.39,.24-.77,.49-1.12,.77-.11,.09-.2,.3-.19,.45,.11,1.83,.22,3.66,.37,5.49,.01,.18,.21,.46,.37,.51,1.42,.4,2.85,.76,4.33,1.15Zm11.06-29.44c-1.04-.38-1.75-1.06-2.17-2.01-.29-.65-.95-.48-1.44-.64-.09-.03-.43,.41-.53,.68-.52,1.39-1.02,2.78-1.48,4.19-.33,1-.58,2.02-.87,3.08l3.17,.83c.5-.98,.54-1,1.57-1.33,.14-.05,.31-.21,.35-.36,.48-1.45,.93-2.9,1.41-4.43Zm11.45,5.99v-6.83h-4.03l-.61,6.83h4.64Zm-6.85,40.68c-.05-.46-.1-.78-.13-1.1-.21-1.99-.41-3.97-.64-5.96-.03-.24-.24-.59-.42-.64-.81-.2-1.64-.32-2.47-.44-.48-.07-1.29,.8-1.18,1.27,.47,2.03,.94,4.07,1.44,6.1,.05,.21,.25,.53,.41,.55,.96,.11,1.94,.15,3,.22Zm-30.63-8.69c.02-.11,.05-.17,.04-.2-1.43-3.85-2.24-7.84-2.75-11.9-.02-.15-.05-.36-.15-.43-.67-.51-1.36-1-2.11-1.53,0,.22,0,.34,0,.45,.28,3.67,1.04,7.25,2.03,10.78,.05,.19,.18,.39,.32,.52,.85,.77,1.73,1.53,2.62,2.32Zm76.54-11.13l-.2-.09c-.18,.09-.36,.23-.55,.27-.67,.16-.76,.6-.8,1.22-.04,.68-.15,1.46-.53,1.98-.69,.97-.91,2.04-1.2,3.13-.71,2.64-1.58,5.23-2.99,7.79,.89-.47,1.64-.81,2.33-1.25,.36-.23,.75-.59,.87-.97,.77-2.4,1.55-4.81,2.18-7.25,.41-1.58,.59-3.23,.87-4.84Zm-58.18,6.18l1.12,5.51c1.2-.21,2.29-.38,3.38-.61,.2-.04,.36-.32,.51-.51,.28-.35,.55-.71,.8-1.08,.13-.2,.34-.46,.29-.63-.16-.64-.41-1.26-.63-1.88,0,0-.04,0-.07,0-1.74-.25-3.48-.51-5.4-.79Zm62.62-9.32c-.49,.39-.89,.8-1.36,1.06-.62,.34-.71,.86-.8,1.48-.33,2.2-.67,4.4-1.12,6.58-.31,1.53-.8,3.03-1.23,4.61,.28-.25,.5-.49,.77-.67,1.3-.87,2-2.05,2.33-3.6,.67-3.09,1.29-6.17,1.41-9.46Zm-23.48,27.5c.71,.17,1.49,.37,2.29,.53,.19,.04,.5-.01,.6-.14,1.3-1.64,2.57-3.31,3.87-5.01-2.24,.42-4.34,.77-6.41,1.26-.38,.09-.86,.74-.87,1.14-.01,.7,.3,1.41,.51,2.23Zm-41.65,3.89c-.04-.08-.07-.14-.11-.19-2.69-2.85-5-5.98-6.94-9.38-.07-.12-.15-.27-.26-.32-.98-.41-1.97-.8-2.96-1.2,1.78,3.17,3.91,5.99,6.37,8.57,1.11,1.16,2.27,2.16,3.9,2.51ZM58.51,11.27l-.11,.17c2.58,1.25,4.89,2.89,7.21,4.56,2.33,1.68,4.19,3.79,6.15,5.73,1.29-.34,1.37-1.66,2.14-2.39-.38-.45-.68-.89-1.08-1.23-.23-.19-.62-.38-.9,.05-.11,.17-.28,.31-.4,.48-.29,.45-.53,.41-.93,.06-2.18-1.92-4.45-3.72-7.09-4.99-.03-.02-.06-.06-.09-.1l.42-.39-5.33-1.97Zm-3.29,69.25c-.51,2.29-1,4.5-1.49,6.71h1.61c.11-1,.39-1.91,1.39-2.24,.6-.2,.84-.57,1.02-1.09,.18-.5,.41-.98,.6-1.48,.26-.7,.51-1.4,.79-2.17l-3.92,.27Zm1.07-7.75c-.21,1.73-.42,3.34-.63,5.04,.9-.07,1.7-.13,2.5-.19,2.03-.15,1.6,.2,2.24-1.89,.04-.13,.05-.32,0-.44-.34-.65-.71-1.29-1.16-2.09l-2.95-.42Zm-22.49-7.79c.13,.69,.2,1.24,.36,1.77,.06,.19,.3,.41,.5,.45,.97,.18,1.45,.74,1.54,1.7,.02,.17,.14,.44,.27,.47,.91,.23,1.83,.41,2.87,.64l-.31-4.56-5.22-.45Zm-5.79,11.1c-.49-1.58-.93-3.07-1.41-4.54-.05-.15-.27-.29-.45-.35-.86-.28-1.72-.53-2.56-.78-.26,.29-.53,.54-.74,.84-.1,.14-.16,.39-.09,.53,.52,1.09,1.06,2.17,1.63,3.23,.11,.2,.34,.43,.55,.48,.99,.23,1.99,.4,3.07,.6Zm42.15,10.11c.85-.49,1.79-.85,2.47-1.48,2.47-2.27,4.54-4.9,6.39-7.69,.39-.59,.74-1.2,1.22-1.97-.79,.34-1.37,.63-1.98,.85-.63,.22-1.04,.62-1.37,1.2-.53,.95-1.09,1.9-1.75,2.76-1.61,2.11-3.29,4.18-4.99,6.33ZM23.36,21.86c3.84-4.4,8.2-8.1,13.45-10.69l-.08-.17-6.38,2.33,.81,.45c-3.45,1.86-6.29,4.4-8.95,7.23l1.16,.86Zm-4.57,62.1c-2.72-3.14-5.15-6.38-6.97-10.05-.07-.14-.18-.27-.31-.36-.85-.55-1.72-1.08-2.57-1.61,0,.03-.03,.09-.02,.12,.1,.21,.2,.42,.31,.62,1.48,2.75,3.19,5.34,5.22,7.71,1.21,1.41,2.32,2.97,4.34,3.57Zm23.73,6.07l-2.03-9.54-2.69-.17,1.37,3.69c.17,0,.24,0,.31,0,.76,0,1.35,.37,1.49,.99,.15,.67,0,1.23-.69,1.58-.15,.08-.27,.42-.23,.6,.18,.77,.41,1.52,.66,2.27,.05,.17,.23,.38,.38,.41,.47,.1,.95,.12,1.43,.18ZM16.35,31.48l4.77-7.33-1.18-.88c-.2,.21-.39,.38-.54,.58-1.23,1.63-2.53,3.21-3.64,4.91-1.22,1.88-1.35,1.29,.59,2.72Zm46.12,48.47c-.89,.08-1.7,.14-2.5,.25-.16,.02-.37,.19-.44,.34-.58,1.39-1.14,2.79-1.66,4.07l1.91,1.55c.68-.93,1.45-1.97,2.2-3.02,.09-.12,.07-.36,.02-.52-.29-.93-.14-1.78,.46-2.67Zm14.08,3.95c.74-.46,1.44-.71,1.89-1.19,2.8-2.97,5.26-6.18,7.17-9.8,.17-.32,.34-.63,.5-.94-.95,.48-1.79,1.05-2.61,1.64-.16,.11-.23,.34-.33,.52-.81,1.41-1.53,2.87-2.45,4.2-1.27,1.85-2.69,3.6-4.18,5.58Zm2.3-52.34c.33-.26,.62-.53,.95-.74,.43-.28,.53-.57,.2-1.01-.32-.42-.56-.91-.88-1.34-1.3-1.73-2.63-3.45-3.95-5.19l-1.36,1.04c.37,.54,.7,1.05,1.05,1.53,.09,.13,.25,.26,.4,.3,.93,.22,1.33,.85,1.44,1.73,.02,.16,.02,.34,.1,.46,.66,1.06,1.33,2.11,2.05,3.23Zm-10.96,51.44c-.81-.31-1.5-.53-1.98,.35-.08,.14-.29,.26-.46,.28-.98,.17-1.41,.92-1.87,1.68-.23,.38-.49,.73-.76,1.08-.63,.82-1.26,1.62-1.97,2.53,.79-.17,1.47-.3,2.14-.45,.33-.08,.75-.11,.97-.33,1.56-1.5,2.79-3.26,3.93-5.14Zm-40.4-.18c-.85-1.47-1.69-2.94-2.54-4.39-.06-.11-.2-.2-.32-.23-.91-.23-1.82-.45-2.73-.67l-.12,.13c1.13,1.53,2.24,3.07,3.39,4.57,.86,1.12,.89,1.1,2.32,.59ZM12.99,28.98c.84-1.2,1.6-2.36,2.43-3.47,.85-1.13,1.77-2.2,2.7-3.34l-.51-.56c-2.14,1.98-3.94,4.15-5.54,6.53l.92,.84Zm69.91-.76c-1.65-2.42-3.46-4.57-5.6-6.52l-.4,.47,5.18,6.8,.82-.74Zm-30.06,61.78c.19,0,.29,0,.38,0,.39-.04,.78-.09,1.18-.13,.59-.06,1.43-.84,1.52-1.4,.05-.33-.46-.94-.8-.95-1.42-.06-1.58,.06-1.97,1.42-.1,.33-.18,.66-.3,1.07Zm-12.3,4.64c-1.19-1.03-2.29-2-3.41-2.96-.11-.1-.29-.13-.45-.15-.9-.11-1.79-.2-2.73-.3,2.02,1.46,4.18,2.55,6.59,3.41Zm20.57-3.15l-.12-.2c-.78,.08-1.57,.16-2.35,.25-.18,.02-.39,.03-.52,.13-1.2,.96-2.39,1.93-3.58,2.9l.06,.13c2.17-1.07,4.34-2.14,6.5-3.22Zm-30.79-3.89l.18-.19c-.93-1.41-1.85-2.81-2.8-4.25l-1.37,.52c1.38,1.35,2.68,2.64,3.98,3.92Zm35.03-.47l.19,.19,3.89-3.87-.17-.34c-.41,.05-1.02-.04-1.2,.19-.96,1.23-1.82,2.55-2.71,3.84Zm-24.08,4.61l2.77,2.53c-.21-.8-.51-1.52-.84-2.22-.06-.14-.25-.29-.39-.3-.45-.04-.9-.01-1.53-.01Zm12.68,.09l-.1-.17c-.39,.04-.78,.06-1.17,.12-.19,.03-.45,.09-.52,.22-.36,.69-.66,1.4-.99,2.11l.12,.09,2.66-2.37ZM25,15.91c-1.64,.94-3.18,2.02-4.54,3.35-.06,.06-.02,.24-.03,.46l4.56-3.81Zm44.83,73.56l.12,.17,3.53-2.51-.14-.19-3.52,2.53Zm-12.99-.56l-.7-.34-.71,1.12c.7,.05,1.32,.15,1.41-.78Zm-32.35,.3l.12-.16-2.75-1.98-.13,.19,2.77,1.96Z"/><path class="cls-6" d="M59.24,36.22c1.21-.28,2.38-.55,3.55-.83,.43-.1,.85-.24,1.29-.3,.48-.07,.62-.29,.63-.78,.03-1.34,1.25-2.29,2.71-2.17,1.15,.09,2.09,1.22,1.98,2.37-.12,1.27-1.33,2.24-2.64,2.13-.73-.06-1.3-.38-1.66-1-.23-.38-.49-.37-.87-.28-1.42,.35-2.84,.71-4.27,.98-.54,.1-.81,.23-.95,.82-.32,1.34-1.25,2.17-2.59,2.42-1.21,.23-2.33-.07-3.15-1.05-.91-1.09-.99-2.34-.42-3.59,.57-1.25,1.67-1.83,2.99-1.8,1.36,.03,2.45,.66,3.02,1.98,.13,.32,.23,.65,.39,1.09Z"/><path class="cls-6" d="M47.08,50.82h1.17v11.67h-1.17v-11.67Z"/><path class="cls-6" d="M57.24,25.83c-.42-.76-.82-1.54-1.27-2.28-.18-.3-.49-.52-.68-.81-.11-.17-.18-.42-.15-.62,.02-.11,.29-.27,.42-.25,.17,.03,.39,.18,.46,.33,.43,.94,.82,1.9,1.22,2.85,.09,.22,.17,.45,.25,.68l-.25,.1Z"/><path class="cls-6" d="M57.14,32.41c-.06-.16-.2-.35-.16-.48,.13-.51,.3-1.02,.5-1.51,.05-.11,.26-.16,.4-.24,.05,.14,.17,.31,.14,.43-.19,.59-.43,1.16-.65,1.74l-.22,.06Z"/><path class="cls-6" d="M73.6,47.42c-.29-.38-.53-.58-.59-.82-.03-.13,.31-.5,.4-.47,.24,.07,.54,.25,.62,.46,.06,.16-.21,.43-.42,.83Z"/><path class="cls-6" d="M71.44,70.56c0,1.46-1.25,2.65-2.77,2.64-1.54,0-2.7-1.21-2.69-2.78,0-1.46,1.25-2.61,2.8-2.59,1.52,.02,2.66,1.19,2.66,2.72Z"/><path class="cls-6" d="M71.97,69.49c.6-.33,1.21-.63,1.79-.99,.18-.11,.38-.35,.39-.54,.08-2.07,1.18-2.85,3.19-2.21,.77-1.2,1.54-2.41,2.32-3.62l.26,.16c-.48,1.38-1.49,2.48-2.2,3.76,.75,1.33,.71,2.37-.15,3.05-1.04,.82-2.01,.69-3.2-.44l-2.25,1.11-.15-.27Z"/><path class="cls-6" d="M18.52,43.85c-1.52-.04-2.58-1.2-2.52-2.73,.06-1.47,1.32-2.62,2.82-2.57,1.41,.05,2.62,1.29,2.59,2.67-.03,1.42-1.41,2.68-2.88,2.64Z"/><path class="cls-6" d="M39.25,21.28c-.3-.39-.67-.79-.14-1.21,.12-.1,.6,.02,.69,.17,.37,.6-.23,.75-.56,1.03Z"/></g></svg>