<svg viewBox="204.8 145.408 624.64 442.368" xmlns="http://www.w3.org/2000/svg" style="max-height: 500px" width="624.64" height="442.368">
<g>
<path fill="rgb(64,170,69)" d="M 801.25 817.93 C797.82,817.49 794.55,816.84 794.00,816.50 C793.42,816.14 793.00,810.88 793.00,804.04 L 793.00 792.20 L 797.66 793.60 C810.08,797.34 818.85,793.38 824.01,781.71 L 826.13 776.92 L 803.07 715.65 C790.38,681.96 780.00,654.06 780.00,653.67 C780.00,653.27 787.28,653.07 796.18,653.23 L 812.37 653.50 L 826.53 695.27 C834.32,718.24 840.91,737.24 841.16,737.50 C841.70,738.03 841.54,738.49 857.86,689.75 L 870.17 653.00 L 885.69 653.00 C900.07,653.00 901.16,653.13 900.53,654.75 C897.41,662.70 872.99,727.29 866.03,746.00 C853.86,778.69 852.38,782.32 847.15,792.36 C839.59,806.86 828.88,816.06 817.83,817.53 C809.16,818.68 807.39,818.73 801.25,817.93 ZM 657.00 734.00 L 657.00 653.00 L 672.00 653.00 L 687.00 653.00 L 687.00 659.64 L 687.00 666.27 L 692.03 661.57 C712.86,642.08 749.57,648.06 766.60,673.72 C768.68,676.85 771.74,683.26 773.41,687.96 C776.20,695.83 776.44,697.56 776.47,710.00 C776.50,725.48 775.55,729.90 769.72,741.29 C760.64,759.04 744.94,769.86 725.84,771.55 C713.17,772.67 701.89,769.08 692.75,761.02 L 688.00 756.83 L 688.00 785.92 L 688.00 815.00 L 672.50 815.00 L 657.00 815.00 L 657.00 734.00 ZM 723.97 746.42 C731.15,744.28 738.78,737.05 742.63,728.72 C745.26,723.01 745.50,721.56 745.50,711.00 C745.50,700.44 745.26,698.99 742.62,693.27 C739.41,686.32 732.21,678.85 726.23,676.27 C724.07,675.34 719.55,674.63 715.50,674.58 C703.64,674.45 695.33,680.49 689.31,693.63 C685.83,701.24 684.88,716.64 687.37,725.19 C692.40,742.52 707.54,751.30 723.97,746.42 ZM 176.53 770.95 C160.41,768.43 146.42,761.37 134.90,749.96 C128.78,743.89 126.38,740.56 122.64,732.96 C115.29,718.04 113.68,710.54 113.61,691.00 C113.55,671.50 115.25,663.44 122.69,648.00 C126.49,640.11 128.65,637.13 135.39,630.43 C144.77,621.10 150.83,617.38 164.02,612.88 C172.32,610.05 175.13,609.59 186.59,609.21 C202.34,608.69 211.68,610.62 225.00,617.15 C236.53,622.80 247.16,633.27 252.35,644.09 C254.35,648.27 256.26,653.03 256.59,654.68 L 257.18 657.67 L 242.84 660.67 L 228.50 663.66 L 224.78 656.66 C220.01,647.66 215.08,642.67 207.08,638.72 C201.52,635.98 199.37,635.51 191.06,635.17 C167.58,634.23 153.13,645.81 146.31,671.00 C144.14,679.03 143.89,698.96 145.87,707.00 C147.84,715.04 153.27,725.89 158.00,731.26 C160.74,734.38 164.67,737.21 169.68,739.69 C176.39,743.01 178.25,743.46 186.47,743.82 C197.57,744.31 205.01,742.50 212.75,737.42 C218.48,733.66 224.07,726.78 226.54,720.44 L 228.13 716.38 L 239.31 719.55 C245.47,721.30 251.74,723.03 253.25,723.38 C254.76,723.74 256.00,724.66 256.00,725.42 C256.00,726.18 253.95,730.89 251.45,735.89 C240.90,756.95 218.82,770.08 191.64,771.43 C186.61,771.68 179.81,771.47 176.53,770.95 ZM 571.50 771.29 C547.95,768.03 529.83,753.35 522.38,731.50 C520.05,724.66 519.65,721.83 519.61,712.00 C519.54,693.62 524.87,680.06 536.90,668.04 C563.87,641.06 610.95,645.22 631.83,676.44 C639.16,687.40 641.50,695.76 641.50,711.00 C641.50,726.29 639.16,734.60 631.73,745.71 C619.13,764.55 595.46,774.60 571.50,771.29 ZM 592.50 745.61 C613.54,735.63 618.33,700.74 601.15,682.67 C595.85,677.09 590.68,674.76 582.50,674.24 C569.22,673.41 559.26,679.72 553.20,692.82 C550.81,697.98 550.57,699.65 550.54,711.00 C550.50,722.64 550.69,723.91 553.30,729.50 C559.01,741.72 568.22,747.98 580.50,747.98 C585.79,747.98 588.72,747.40 592.50,745.61 ZM 297.75 769.98 C287.62,767.42 278.82,760.24 274.67,751.12 C273.01,747.48 272.56,744.48 272.53,737.00 C272.50,728.38 272.79,726.88 275.65,720.84 C281.13,709.28 290.27,702.53 304.52,699.51 C309.06,698.55 317.34,698.03 328.25,698.02 L 345.00 698.00 L 345.00 695.66 C345.00,691.96 342.44,684.43 340.04,681.05 C336.88,676.61 330.67,673.78 322.87,673.22 C317.23,672.82 315.38,673.14 310.60,675.33 C306.82,677.06 304.39,678.94 303.23,681.03 C299.62,687.54 300.63,687.22 286.21,686.44 C270.95,685.61 271.15,685.80 275.69,676.19 C286.71,652.87 324.87,642.67 351.07,656.04 C361.75,661.49 371.31,674.37 373.90,686.80 C374.59,690.12 375.00,706.42 375.00,730.55 L 375.00 769.00 L 360.00 769.00 L 345.00 769.00 L 345.00 761.55 L 345.00 754.10 L 339.99 759.10 C337.04,762.06 332.25,765.39 328.33,767.23 C322.48,769.96 320.44,770.38 311.59,770.63 C306.04,770.79 299.81,770.50 297.75,769.98 ZM 325.61 747.52 C335.24,744.66 343.12,734.81 344.63,723.75 L 345.27 719.00 L 330.82 719.00 C309.74,719.00 302.57,721.65 300.18,730.32 C298.17,737.57 302.34,745.53 309.32,747.77 C314.02,749.28 319.99,749.19 325.61,747.52 ZM 396.05 768.25 C396.09,767.84 395.88,741.74 395.60,710.25 L 395.08 653.00 L 410.54 653.00 L 426.00 653.00 L 426.00 659.59 L 426.00 666.19 L 431.08 661.61 C433.88,659.10 439.16,655.57 442.81,653.77 C449.24,650.60 449.85,650.50 461.98,650.50 C472.73,650.50 475.30,650.82 480.20,652.80 C491.03,657.18 498.90,666.57 502.63,679.57 C504.08,684.60 504.40,691.81 504.75,727.25 L 505.17 769.00 L 490.08 769.00 L 475.00 769.00 L 475.00 732.18 C475.00,691.49 474.58,688.01 468.91,681.55 C464.62,676.66 458.59,674.62 450.25,675.21 C440.06,675.94 433.13,680.20 428.66,688.50 C426.57,692.37 426.49,693.76 426.21,730.75 L 425.91 769.00 L 410.96 769.00 C402.73,769.00 396.02,768.66 396.05,768.25 ZM 492.19 579.99 C492.09,579.16 490.40,574.44 488.44,569.49 C486.48,564.55 484.18,558.47 483.33,556.00 C478.57,542.14 461.54,511.17 448.71,493.00 C442.98,484.91 428.96,467.77 424.56,463.50 C423.43,462.40 420.50,459.25 418.06,456.50 C413.32,451.17 387.72,424.00 374.57,410.34 C370.21,405.81 366.23,402.36 365.73,402.67 C364.56,403.39 355.83,394.88 356.35,393.52 C356.57,392.96 355.41,392.40 353.78,392.28 L 350.81 392.07 L 353.59 395.78 C355.12,397.83 360.27,404.23 365.04,410.00 C383.32,432.15 429.82,491.83 436.78,502.07 C445.17,514.42 455.89,531.63 460.26,539.80 C464.48,547.66 464.43,547.71 457.59,542.21 C453.69,539.06 442.00,533.26 428.00,527.52 C347.17,494.35 301.68,450.00 277.96,381.28 C270.39,359.34 267.00,338.30 267.00,313.30 L 267.00 297.70 L 276.75 298.39 C303.38,300.25 335.52,311.01 363.27,327.34 C393.60,345.19 429.41,379.52 448.98,409.50 C456.27,420.66 464.66,438.45 472.34,459.00 C485.73,494.84 489.82,513.91 492.04,551.01 C492.92,565.74 493.03,586.68 492.19,579.99 ZM 533.06 567.86 C532.92,566.32 541.37,543.22 545.39,534.15 C556.17,509.82 563.58,500.07 594.88,469.00 C630.85,433.30 641.50,420.59 655.45,396.70 C663.98,382.10 668.09,372.53 674.89,351.50 C680.80,333.22 681.20,332.35 685.53,328.43 C699.36,315.93 730.26,303.05 750.53,301.34 L 757.58 300.74 L 757.29 307.62 C756.17,333.93 754.77,353.37 753.63,358.50 C750.09,374.42 744.27,390.89 735.70,409.24 C720.78,441.16 698.60,467.11 665.01,491.95 C649.65,503.31 627.44,515.41 602.50,526.00 C589.88,531.36 576.11,538.25 569.00,542.75 C563.60,546.18 563.54,546.19 566.00,543.40 C567.38,541.83 577.95,531.03 589.50,519.38 C630.00,478.55 630.26,478.26 659.12,440.00 C676.56,416.88 683.39,407.02 680.92,408.55 C680.32,408.92 681.04,407.32 682.50,404.99 C684.11,402.45 684.81,400.41 684.26,399.86 C683.71,399.31 678.60,404.41 671.42,412.67 C664.87,420.22 658.58,427.32 657.47,428.45 C656.35,429.58 651.88,434.33 647.55,439.00 C643.21,443.67 623.87,463.48 604.58,483.00 C585.29,502.53 565.83,522.92 561.34,528.31 C554.80,536.17 543.13,552.70 534.31,566.62 C533.65,567.65 533.09,568.21 533.06,567.86 ZM 639.00 545.39 C625.81,544.49 604.00,540.61 604.00,539.17 C604.01,538.80 607.94,536.97 612.75,535.11 C635.62,526.24 663.38,509.86 682.06,494.20 C697.43,481.31 718.32,458.93 731.02,441.71 C742.35,426.37 742.57,426.15 747.50,424.96 C753.40,423.54 779.30,422.46 784.44,423.42 C787.72,424.04 787.96,424.32 787.37,426.80 C783.71,442.18 771.77,469.77 762.75,483.71 C752.94,498.88 737.24,515.06 722.90,524.77 C710.29,533.32 691.45,540.86 676.01,543.56 C667.11,545.11 648.41,546.04 639.00,545.39 ZM 364.50 542.37 C340.69,539.87 316.23,531.20 296.69,518.35 C278.92,506.65 258.14,481.62 247.01,458.50 C242.67,449.49 234.00,426.65 234.00,424.23 C234.00,420.43 278.85,422.14 283.65,426.12 C284.40,426.75 287.46,430.75 290.45,435.01 C298.50,446.50 315.03,466.97 323.27,475.65 C345.09,498.65 382.78,523.52 413.25,535.04 C418.06,536.86 422.00,538.63 422.00,538.99 C422.00,541.10 377.38,543.72 364.50,542.37 ZM 513.08 504.90 C504.88,486.27 500.19,443.92 502.91,413.00 C509.37,339.53 554.55,269.70 624.34,225.32 C635.34,218.32 649.21,211.31 653.92,210.37 C656.70,209.81 657.03,210.11 660.02,216.04 C664.24,224.40 669.52,240.75 671.52,251.65 C675.67,274.22 674.27,306.19 668.01,331.78 C656.26,379.79 624.73,429.28 583.40,464.58 C568.95,476.93 554.70,488.70 545.00,496.32 C537.11,502.51 535.45,503.45 535.18,501.88 C534.33,496.84 542.55,460.32 548.58,442.36 C558.26,413.51 570.82,386.13 597.70,335.25 C601.26,328.51 603.80,322.95 603.34,322.88 C602.88,322.82 602.16,322.82 601.75,322.88 C601.34,322.95 601.00,322.49 601.00,321.88 C601.00,321.10 600.54,321.14 599.50,322.00 C598.55,322.79 598.00,322.85 598.00,322.18 C598.00,321.60 598.45,320.84 599.00,320.50 C599.55,320.16 599.99,319.35 599.98,318.69 C599.94,316.53 595.67,322.55 577.45,350.50 C568.27,364.58 556.94,384.98 547.76,404.00 C530.48,439.77 524.15,458.93 518.54,492.49 C517.07,501.28 515.67,508.66 515.44,508.89 C515.21,509.12 514.15,507.33 513.08,504.90 ZM 481.75 441.95 C480.90,440.60 475.72,432.08 470.24,423.00 L 460.29 406.50 L 457.06 392.13 C452.52,371.87 446.04,352.71 438.42,337.00 C431.24,322.18 417.04,297.86 415.95,298.53 C415.58,298.76 414.47,298.07 413.50,297.00 C412.53,295.93 411.38,295.27 410.95,295.53 C410.51,295.80 409.45,295.31 408.58,294.44 C407.71,293.57 407.00,293.09 407.00,293.38 C407.00,293.67 409.73,299.89 413.08,307.20 C426.75,337.13 443.25,379.08 441.88,380.45 C441.67,380.66 437.57,376.39 432.76,370.95 C418.78,355.16 391.84,332.77 365.29,314.88 C359.67,311.10 354.67,307.22 354.17,306.25 C353.67,305.29 352.42,300.45 351.38,295.50 C348.86,283.43 348.89,256.54 351.45,243.52 C353.71,231.99 359.16,214.60 361.58,211.18 C361.70,211.01 365.91,212.24 370.93,213.92 C392.25,221.06 415.23,234.42 432.60,249.75 C448.11,263.45 459.00,277.94 468.49,297.50 C477.56,316.21 482.47,332.94 486.68,359.50 C490.12,381.17 488.60,430.09 484.12,442.21 L 483.31 444.40 L 481.75 441.95 ZM 355.00 395.94 C355.00,395.36 355.45,395.16 356.00,395.50 C356.55,395.84 357.00,396.32 357.00,396.56 C357.00,396.80 356.55,397.00 356.00,397.00 C355.45,397.00 355.00,396.52 355.00,395.94 ZM 491.01 312.30 C485.86,304.16 477.43,290.84 472.27,282.69 C458.71,261.31 458.59,260.98 458.54,246.00 C458.49,231.51 460.04,225.60 467.81,210.50 C476.50,193.63 496.72,169.44 508.75,161.53 L 513.00 158.73 L 517.25 161.61 C524.56,166.57 539.35,182.13 545.19,191.00 C552.56,202.19 559.12,215.50 562.47,226.00 C565.67,236.06 567.04,252.18 565.02,255.96 C564.34,257.24 556.94,267.34 548.58,278.40 C540.23,289.45 529.65,303.81 525.08,310.30 C520.51,316.79 516.66,321.97 516.52,321.80 C516.14,321.35 515.13,302.57 514.49,284.00 C513.77,263.16 512.99,255.50 511.95,259.00 C511.44,260.68 511.17,260.92 511.10,259.72 C511.04,258.74 510.33,257.68 509.50,257.36 C508.62,257.02 508.00,255.52 508.00,253.73 C508.00,239.54 504.26,277.50 503.07,303.70 C502.57,314.80 501.76,324.61 501.26,325.49 C500.57,326.74 498.30,323.83 491.01,312.30 Z"/>
</g>
</svg>